<svg id="Gruppe_2" data-name="Gruppe 2" xmlns="http://www.w3.org/2000/svg" width="330.185" height="32.21" viewBox="0 0 330.185 32.21">
  <path id="Pfad_404" data-name="Pfad 404" d="M264.631,380.165a4.371,4.371,0,0,1-.788-.68,3.208,3.208,0,0,1-.319-.4,3.832,3.832,0,0,1-.362-1.3,13.249,13.249,0,0,1-.106-1.64c-.031-1.671-.041-3.26-.041-4.766v-8.467c0-1.276.01-2.591.041-3.958q.043-1.484.128-3.02a8.785,8.785,0,0,1,.34-2.255,3.517,3.517,0,0,1,1.256-1.614,4.616,4.616,0,0,1,2.662-.727v-.421h-9.067c-.085.226-.431,1.052-1.042,2.487s-1.39,3.226-2.338,5.381-2.021,4.565-3.214,7.237-2.412,5.34-3.661,8.039l-10.17-23.144h-9.063v.421q.513.088,1.235.277a4.766,4.766,0,0,1,1.361.617,3.91,3.91,0,0,1,1.107,1.172,3.828,3.828,0,0,1,.511,1.937c.029.818.039,1.516.039,2.08v5.365q0,2.851-.039,5.34t-.128,4.313a25.165,25.165,0,0,1-.3,3.686,8.108,8.108,0,0,1-.8,2.532,4.143,4.143,0,0,1-1.492,1.594,7.446,7.446,0,0,1-2.424.875v.426h11.1v-.426a8.524,8.524,0,0,1-2.87-.83,3.707,3.707,0,0,1-1.555-1.575,6.712,6.712,0,0,1-.639-2.467q-.128-1.468-.128-3.472v-5.444c0-1.559.008-3.037.022-4.441s.029-2.827.041-4.256.022-3.094.022-4.962c.142.315.4.908.79,1.789s.871,1.972,1.465,3.277,1.264,2.792,2,4.465,1.53,3.47,2.383,5.387,1.724,3.9,2.615,5.977,1.8,4.15,2.7,6.252h.254c.055-.167.2-.519.425-1.044s.468-1.105.725-1.742.509-1.264.765-1.87.454-1.058.6-1.345l2.572-5.764c.78-1.74,1.555-3.454,2.32-5.127s1.539-3.391,2.32-5.149,1.636-3.688,2.573-5.788v17.322c0,1.7-.028,3.484-.085,5.365-.029.564-.085,1.121-.167,1.673a5.286,5.286,0,0,1-.387,1.388,3.736,3.736,0,0,1-1.659,1.571,6.913,6.913,0,0,1-3.063.765v.47h14.594v-.426a6.061,6.061,0,0,1-1.787-.317A5.366,5.366,0,0,1,264.631,380.165Z" transform="translate(-205.09 -349.553)" fill="#e6aa23"/>
  <path id="Pfad_405" data-name="Pfad 405" d="M288.01,351.34a7.466,7.466,0,0,1,3.126,1.046,3.924,3.924,0,0,1,1.514,1.935,7.738,7.738,0,0,1,.381,2.444q.043,1.557.041,3.254v14.468L272.9,350.919h-8.638v.421a12.291,12.291,0,0,1,1.425.277,4.265,4.265,0,0,1,1.384.641,3.889,3.889,0,0,1,1.107,1.229,4.958,4.958,0,0,1,.592,2.023c.031.826.045,1.518.045,2.086v5.192q0,2.851-.045,5.34t-.126,4.313c-.057,1.622-.145,3.01-.254,4.174a5.838,5.838,0,0,1-.765,2.64,3.363,3.363,0,0,1-1.616,1.339,8.436,8.436,0,0,1-2.043.533v.426h10.465v-.426a8.942,8.942,0,0,1-2.746-.7,3.116,3.116,0,0,1-1.467-1.465,7.05,7.05,0,0,1-.531-2.605q-.107-1.74-.108-3.916v-17.95q2.894,3.233,5.491,6.258t5.3,6.185q2.7,3.172,5.68,6.661t6.6,7.665a1.164,1.164,0,0,0,.765.419.438.438,0,0,0,.315-.1.379.379,0,0,0,.108-.279v-2.766c0-1.022,0-2.051-.022-3.085s-.018-2.051-.018-3.045V369.68c0-1.9.018-3.676.061-5.336s.094-3.1.153-4.323c.055-1.3.112-2.534.169-3.68a7.081,7.081,0,0,1,.383-2.361,3.769,3.769,0,0,1,1.467-1.832,6.517,6.517,0,0,1,2.532-.808v-.421H288.01Z" transform="translate(-167.804 -349.553)" fill="#e6aa23"/>
  <path id="Pfad_406" data-name="Pfad 406" d="M307.719,376.42a13.43,13.43,0,0,1-2.064,2.192A8.685,8.685,0,0,1,303.441,380a9.238,9.238,0,0,1-2.509.663c-.822.112-1.608.179-2.359.212s-1.37.041-1.852.041a18.561,18.561,0,0,1-3.153-.253,2.724,2.724,0,0,1-1.828-.853,4.044,4.044,0,0,1-.486-1.809c-.071-.808-.124-1.665-.153-2.577,0-.281-.006-.627-.02-1.04s-.02-.845-.02-1.3v-5.1a13.377,13.377,0,0,1,.086-1.748H293.1c.285,0,.568.012.853.026s.639.037,1.067.061a7.719,7.719,0,0,1,2.235.466,5.885,5.885,0,0,1,1.636.981,7.663,7.663,0,0,1,1.467,2.174,14.334,14.334,0,0,1,1.04,2.806h.515V359.339H301.4a20.061,20.061,0,0,1-.574,2.151,5.946,5.946,0,0,1-.851,1.679,4.628,4.628,0,0,1-1.382,1.237,7.32,7.32,0,0,1-2.127.806,9.343,9.343,0,0,1-1.386.193c-.551.045-1.105.075-1.659.1s-1.04.045-1.467.045H291.1v-.466c0-.257-.006-.617-.02-1.087s-.02-1.071-.02-1.807v-2.719q0-2.815.065-4.942c.041-1.418.092-2.353.146-2.809a13.611,13.611,0,0,1,1.384-.151c.637-.041,1.256-.057,1.85-.057a38,38,0,0,1,4.766.25,10.613,10.613,0,0,1,2.682.6,20.7,20.7,0,0,1,6.466,5.786l.427-.214-2.894-7.015H282.467v.421a18.305,18.305,0,0,1,1.87.358,3.022,3.022,0,0,1,1.363.871,1.871,1.871,0,0,1,.4.836,7.758,7.758,0,0,1,.214,1.3c.043.482.069.989.086,1.528s.02,1.062.02,1.575v10.766q0,1.27-.02,2.489c-.016.81-.031,1.553-.043,2.233s-.022,1.221-.022,1.618c0,.458-.014.914-.045,1.384a11.96,11.96,0,0,1-.147,1.339c-.073.426-.151.8-.232,1.126a1.988,1.988,0,0,1-.34.751,4.078,4.078,0,0,1-1.514,1.058,8.545,8.545,0,0,1-1.976.555v.426h26.038l2.133-8.129-.47-.128A29.172,29.172,0,0,1,307.719,376.42Z" transform="translate(-149.052 -349.553)" fill="#e6aa23"/>
  <path id="Pfad_407" data-name="Pfad 407" d="M315.561,351.34c.4.059.81.126,1.237.191a6.189,6.189,0,0,1,1.168.317,2.373,2.373,0,0,1,.873.6,1.566,1.566,0,0,1,.34,1.062,2.951,2.951,0,0,1-.171.934,9.809,9.809,0,0,1-.4,1c-.155.332-.322.639-.49.934s-.332.566-.472.792q-.378.681-1.125,1.872c-.495.8-1.022,1.626-1.573,2.489s-1.1,1.716-1.64,2.556-.991,1.52-1.362,2.062c-.452-.771-.94-1.573-1.465-2.424s-1.042-1.685-1.555-2.493-.977-1.577-1.4-2.3-.8-1.339-1.107-1.848c-.456-.771-.889-1.52-1.3-2.277a4.043,4.043,0,0,1-.617-1.685,1.127,1.127,0,0,1,.34-.867,2.4,2.4,0,0,1,.893-.509,5.806,5.806,0,0,1,1.193-.279c.425-.063.851-.1,1.276-.13v-.421h-12.9v.421a3.044,3.044,0,0,1,1.512.468,7.4,7.4,0,0,1,1.339,1.15A12.2,12.2,0,0,1,299.5,354.7q.653,1.017,1.465,2.255.424.635,1.066,1.659t1.36,2.19c.484.783.971,1.583,1.467,2.4s.952,1.567,1.362,2.239.759,1.225,1.046,1.681.448.72.509.8c0,1.557-.008,2.888-.022,3.979s-.039,2.039-.063,2.829c0,.454-.006.922-.022,1.4s-.043.942-.084,1.364-.1.806-.171,1.148a1.44,1.44,0,0,1-.32.729,4.378,4.378,0,0,1-1.767,1.335,9.876,9.876,0,0,1-1.935.4v.426H316.5v-.426a19.69,19.69,0,0,1-1.958-.466,2.986,2.986,0,0,1-1.659-1.235,3.231,3.231,0,0,1-.409-1.638c-.039-.781-.061-1.581-.061-2.4V366.83c.342-.513.808-1.221,1.406-2.129s1.213-1.86,1.848-2.847,1.264-1.952,1.872-2.878,1.089-1.646,1.427-2.19c.509-.792.985-1.506,1.427-2.127a10.484,10.484,0,0,1,1.382-1.618,6.554,6.554,0,0,1,1.575-1.1,6.639,6.639,0,0,1,2.043-.6v-.421h-9.832Z" transform="translate(-135.364 -349.553)" fill="#e6aa23"/>
  <path id="Pfad_408" data-name="Pfad 408" d="M338.69,350.919H315.033v.421a18.191,18.191,0,0,1,1.87.358,3.028,3.028,0,0,1,1.362.871,1.916,1.916,0,0,1,.4.836,8.448,8.448,0,0,1,.212,1.3q.064.724.086,1.528c.012.541.02,1.062.02,1.575v10.766c0,.847-.008,1.677-.02,2.489s-.026,1.553-.043,2.233-.022,1.221-.022,1.618c0,.458-.016.914-.045,1.384a11.975,11.975,0,0,1-.146,1.339,11.185,11.185,0,0,1-.236,1.126,1.9,1.9,0,0,1-.338.751,4.088,4.088,0,0,1-1.508,1.058,8.513,8.513,0,0,1-1.982.555v.426h13.616v-.426a9.877,9.877,0,0,1-2.658-.4,2.393,2.393,0,0,1-1.294-.914,4.04,4.04,0,0,1-.493-1.809c-.073-.808-.118-1.665-.148-2.577,0-.484-.008-1.056-.022-1.72s-.018-1.4-.018-2.2V366.23h2.041c.281,0,.582.012.891.026s.682.037,1.109.061a7.274,7.274,0,0,1,2.147.45,5.744,5.744,0,0,1,1.726,1.085,6.614,6.614,0,0,1,1.532,2.316,21.135,21.135,0,0,1,.979,2.869h.507v-13.7h-.507c-.114.71-.246,1.37-.385,1.982a4.985,4.985,0,0,1-.725,1.675,4.521,4.521,0,0,1-1.4,1.323,7.949,7.949,0,0,1-2.426.893,10.727,10.727,0,0,1-1.492.193c-.594.045-1.17.075-1.722.1s-1.06.045-1.512.045h-.763v-4.04c0-1.05,0-2.165.018-3.34s.037-2.265.065-3.258c.028-.509.059-.938.083-1.292s.059-.647.09-.875a4.876,4.876,0,0,1,.1-.6c.043-.169.079-.34.108-.511.138,0,.36-.008.657-.02s.615-.024.952-.045l1.069-.041c.366-.012.692-.016.979-.016a36.394,36.394,0,0,1,4.408.234,9.572,9.572,0,0,1,2.615.572,12.12,12.12,0,0,1,3.063,2.255,40.889,40.889,0,0,1,3.315,3.7l.425-.21Z" transform="translate(-115.343 -349.553)" fill="#e6aa23"/>
  <path id="Pfad_409" data-name="Pfad 409" d="M355.284,375.109a11.272,11.272,0,0,1-1.362,2.166,8.772,8.772,0,0,1-1.94,1.767,9.406,9.406,0,0,1-2.829,1.235,12.086,12.086,0,0,1-1.661.338c-.621.087-1.231.147-1.828.2s-1.14.067-1.636.087-.861.016-1.087.016a14.546,14.546,0,0,1-1.7-.1c-.568-.071-1.093-.159-1.573-.258a6.513,6.513,0,0,1-1.237-.362,1.667,1.667,0,0,1-.678-.425,3.729,3.729,0,0,1-.446-1.832c-.045-.824-.081-1.683-.11-2.6,0-.956-.008-1.832-.02-2.615s-.024-1.539-.024-2.273V362.7c0-.849.006-1.673.024-2.467s.028-1.6.041-2.428.041-1.728.065-2.721a3.443,3.443,0,0,1,.533-1.852,3.519,3.519,0,0,1,1.172-1.087,5.351,5.351,0,0,1,1.443-.551c.511-.114.95-.2,1.317-.256v-.421H328.175v.421a9,9,0,0,1,2.108.509,3.825,3.825,0,0,1,1.6,1.109,1.964,1.964,0,0,1,.381.81,7.782,7.782,0,0,1,.191,1.168,14.128,14.128,0,0,1,.065,1.427v12.211q0,1.27-.02,2.489c-.014.81-.027,1.553-.045,2.233s-.02,1.221-.02,1.618c0,.458-.02.914-.061,1.384s-.094.91-.151,1.339a6.949,6.949,0,0,1-.238,1.126,2.15,2.15,0,0,1-.358.751,3.98,3.98,0,0,1-1.636,1.058,11.189,11.189,0,0,1-2.111.555v.426H355.2l1.575-8.766-.425-.13C356,373.508,355.65,374.326,355.284,375.109Z" transform="translate(-101.646 -349.553)" fill="#e6aa23"/>
  <path id="Pfad_410" data-name="Pfad 410" d="M370.342,355.407a14.807,14.807,0,0,0-4.874-3.425,15.884,15.884,0,0,0-6.492-1.272,18.5,18.5,0,0,0-6.315,1.079,15.681,15.681,0,0,0-5.233,3.11,14.731,14.731,0,0,0-3.553,4.933,16.77,16.77,0,0,0-.065,12.891,14.943,14.943,0,0,0,3.425,4.939,15.383,15.383,0,0,0,5.06,3.189,17.249,17.249,0,0,0,12.321-.02,15.29,15.29,0,0,0,5.1-3.275,15.749,15.749,0,0,0,3.472-5.021,15.42,15.42,0,0,0,1.272-6.295,16.442,16.442,0,0,0-1.058-5.874A15.021,15.021,0,0,0,370.342,355.407Zm-1.807,16.237a17.123,17.123,0,0,1-1.978,4.827,11.552,11.552,0,0,1-3.3,3.509,8.027,8.027,0,0,1-4.663,1.364,8.81,8.81,0,0,1-4.7-1.235,10.562,10.562,0,0,1-3.356-3.277,15.535,15.535,0,0,1-2.029-4.722,22.738,22.738,0,0,1-.68-5.576,24.553,24.553,0,0,1,.619-5.465,16.077,16.077,0,0,1,1.915-4.829,10.958,10.958,0,0,1,3.317-3.472,8.472,8.472,0,0,1,4.789-1.339,8.28,8.28,0,0,1,4.724,1.339,11.488,11.488,0,0,1,3.342,3.49,16.639,16.639,0,0,1,2,4.787,21.682,21.682,0,0,1,.655,5.235A22.524,22.524,0,0,1,368.535,371.644Z" transform="translate(-86.454 -349.769)" fill="#e6aa23"/>
  <path id="Pfad_411" data-name="Pfad 411" d="M392.3,350.919v.421a8.307,8.307,0,0,1,1.15.191,5.171,5.171,0,0,1,1.191.429,3.282,3.282,0,0,1,.94.68,1.449,1.449,0,0,1,.381,1.04c0,.283-.028.725-.088,1.321a16.179,16.179,0,0,1-.682,2.851c-.311,1.024-.657,2.117-1.038,3.3s-.763,2.359-1.15,3.537-.765,2.332-1.148,3.464-.741,2.164-1.068,3.085-.592,1.7-.8,2.341-.36,1.054-.448,1.252c-.2-.539-.519-1.406-.957-2.615s-.932-2.569-1.472-4.083-1.107-3.1-1.7-4.744-1.138-3.171-1.62-4.575-.875-2.6-1.191-3.574a10.8,10.8,0,0,1-.466-1.726,1.312,1.312,0,0,1,.531-1.062,4.1,4.1,0,0,1,1.191-.659,6.24,6.24,0,0,1,1.319-.318c.438-.063.747-.1.914-.13v-.421H372.766v.464a6.661,6.661,0,0,1,1.746.275,4.339,4.339,0,0,1,1.215.6,3.6,3.6,0,0,1,.763.741,5.376,5.376,0,0,1,.448.727c.4.818.767,1.665,1.107,2.532s.723,1.864,1.148,3c-.625,1.954-1.25,3.838-1.872,5.635s-1.191,3.421-1.7,4.852-.936,2.619-1.28,3.574-.549,1.543-.633,1.773q-.473-1.282-1.235-3.258c-.511-1.321-1.054-2.743-1.638-4.254s-1.166-3.057-1.746-4.622-1.113-3-1.6-4.313-.871-2.446-1.168-3.366a8.039,8.039,0,0,1-.452-1.767,1.581,1.581,0,0,1,.409-1.148,2.6,2.6,0,0,1,.959-.639,5.131,5.131,0,0,1,1.062-.293,4.645,4.645,0,0,1,.725-.09v-.421h-12v.464a4.1,4.1,0,0,1,1.531.315,4.516,4.516,0,0,1,1.026.647,3.242,3.242,0,0,1,.663.739c.149.258.269.47.36.641.167.342.326.663.466.979s.277.639.4.981.265.7.421,1.1.338.869.531,1.4c.688,1.793,1.362,3.582,2.049,5.385s1.38,3.661,2.1,5.572,1.476,3.908,2.253,5.984,1.612,4.258,2.487,6.549h.515l1.873-4.168c.478-1.337.977-2.715,1.484-4.154s1.024-2.882,1.535-4.357,1.022-2.925,1.532-4.364.993-2.8,1.449-4.107c.592,1.594,1.176,3.205,1.74,4.834s1.158,3.315,1.769,5.043,1.25,3.527,1.917,5.4,1.382,3.828,2.151,5.87h.421l1.789-4.081q.8-2.427,1.738-5.133c.631-1.8,1.243-3.594,1.852-5.381s1.215-3.523,1.814-5.21,1.119-3.228,1.569-4.62q.43-1.227.814-2.064a11.984,11.984,0,0,1,.718-1.36,6.814,6.814,0,0,1,.6-.832c.163-.2.3-.336.381-.429a4.852,4.852,0,0,1,2.678-1.229v-.421Z" transform="translate(-71.475 -349.553)" fill="#e6aa23"/>
  <path id="Pfad_412" data-name="Pfad 412" d="M232.895,373.025a6.891,6.891,0,0,1-3.969,1.16,8.342,8.342,0,0,1-3.678-.771,7.385,7.385,0,0,1-2.632-2.111,9.624,9.624,0,0,1-1.587-3.087,12.219,12.219,0,0,1-.543-3.653c0-.334.014-.655.045-.975s.045-.6.045-.841h14.566a8.465,8.465,0,0,0-.863-3.311A7.181,7.181,0,0,0,232.4,357.1a7.825,7.825,0,0,0-2.723-1.384,11.971,11.971,0,0,0-3.336-.45,8.476,8.476,0,0,0-3.969.928,9.783,9.783,0,0,0-3.043,2.428A11.2,11.2,0,0,0,217.4,362a11.085,11.085,0,0,0-.68,3.785,13.633,13.633,0,0,0,.725,4.473,11.216,11.216,0,0,0,2.066,3.674,9.267,9.267,0,0,0,3.244,2.43,10.162,10.162,0,0,0,4.221.859,8.156,8.156,0,0,0,3.381-.68,9.022,9.022,0,0,0,2.607-1.722,8.537,8.537,0,0,0,1.726-2.3,8.292,8.292,0,0,0,.816-2.247l-.362-.085A5.455,5.455,0,0,1,232.895,373.025Zm-11.731-12.48a8.848,8.848,0,0,1,1.16-2.017,8.306,8.306,0,0,1,1.769-1.744,3.759,3.759,0,0,1,2.292-.751,4.135,4.135,0,0,1,3.11,1.2,4.032,4.032,0,0,1,1.154,2.886,2.241,2.241,0,0,1-.157.953,3.41,3.41,0,0,1-.478.678,3.317,3.317,0,0,1-1.042.224c-.395.039-.818.053-1.272.053q-1.044,0-1.9.02l-1.657.043c-.529.02-1.066.024-1.61.024h-1.86A8.336,8.336,0,0,1,221.164,360.545Z" transform="translate(-216.719 -345.055)" fill="#e6aa23"/>
  <path id="Pfad_413" data-name="Pfad 413" d="M270.159,372.414c6.317-6.319,8.09-15.069,3.714-19.6-4.484-4.587-13.55-2.872-20.01,3.912-6.354,6.643-7.573,15.39-2.945,19.546C255.434,380.339,263.955,378.623,270.159,372.414ZM255.989,358.79c5.4-5.654,12.808-7.3,16.345-3.706a5.231,5.231,0,0,1,.415.56c-.055-.063-.509.212-.991-.134-3.784-2.444-10.172-.792-14.908,4.117-4.84,5.053-6.041,11.544-3.073,15.022.177.317-.2.285-.82.075C249.408,371.345,250.708,364.275,255.989,358.79Z" transform="translate(-184.207 -350.248)" fill="#e6aa23"/>
  <path id="Pfad_414" data-name="Pfad 414" d="M268.353,370.1c-5.5,5.532-12.718,7.675-17.692,5.631l.7.6c4,4.024,12.692,2.29,18.885-3.9,6.262-6.248,8.149-14.828,4.111-19.286C275.773,358.147,273.52,364.9,268.353,370.1Z" transform="translate(-181.582 -347.242)" fill="#e6aa23"/>
</svg>
